<svg width="880" height="693" viewBox="0 0 880 693" fill="none" xmlns="http://www.w3.org/2000/svg">
<g filter="url(#filter0_d_1324_51)">
<path d="M509.186 38.8037C516.855 55.1018 500.606 59.7183 481.992 68.4538C463.378 77.1894 449.449 86.7361 441.781 70.438C434.112 54.14 427.89 21.7912 454.223 9.43325C481.462 -3.35045 501.518 22.5057 509.186 38.8037Z" fill="#2F2E41"/>
</g>
<g filter="url(#filter1_d_1324_51)">
<path d="M471.209 70.8556C485.048 70.8556 496.267 59.651 496.267 45.8294C496.267 32.0078 485.048 20.8032 471.209 20.8032C457.37 20.8032 446.151 32.0078 446.151 45.8294C446.151 59.651 457.37 70.8556 471.209 70.8556Z" fill="#FFB8B8"/>
</g>
<g filter="url(#filter2_d_1324_51)">
<path d="M595.351 156.816C594.484 155.685 593.617 154.574 592.74 153.494C591.607 152.088 590.468 150.726 589.322 149.408C576.334 134.44 562.52 125.014 547.309 124.006H547.288L547.064 123.985L516.753 153.494L506.448 163.52L506.673 164.07L512.233 177.897H609.655C605.265 170.622 600.491 163.584 595.351 156.816Z" fill="#2F2E41"/>
</g>
<g filter="url(#filter3_d_1324_51)">
<path d="M443.961 55.9049L452.931 51.6952L451.681 38.7717L457.679 49.4667L461.966 47.4546L461.238 39.9159L464.737 46.1546L496.593 31.2041C493.601 24.845 488.202 19.9334 481.584 17.5498C474.966 15.1662 467.671 15.5059 461.304 18.494L456.687 20.6608C450.32 23.649 445.402 29.041 443.015 35.6505C440.629 42.26 440.969 49.5458 443.961 55.9049Z" fill="#2F2E41"/>
</g>
<g filter="url(#filter4_d_1324_51)">
<path d="M651.565 510.171H128.351C123.888 510.166 119.61 508.393 116.454 505.241C113.298 502.089 111.523 497.816 111.518 493.358V179.369C111.521 176.103 112.822 172.972 115.134 170.663C117.446 168.354 120.58 167.055 123.85 167.051H655.853C659.18 167.055 662.369 168.376 664.721 170.725C667.073 173.075 668.396 176.259 668.399 179.582V493.358C668.394 497.816 666.619 502.089 663.463 505.241C660.307 508.393 656.029 510.166 651.565 510.171Z" fill="#F2F2F2"/>
</g>
<g filter="url(#filter5_d_1324_51)">
<path d="M144.675 493.358H635.242C639.571 493.358 643.723 491.641 646.784 488.583C649.846 485.526 651.566 481.379 651.566 477.055V210.554C651.566 206.23 649.846 202.084 646.784 199.026C643.723 195.969 639.571 194.251 635.242 194.251H144.675C140.346 194.251 136.194 195.969 133.133 199.026C130.071 202.084 128.352 206.23 128.352 210.554V477.055C128.352 481.379 130.071 485.526 133.133 488.583C136.194 491.641 140.346 493.358 144.675 493.358Z" fill="white"/>
</g>
<g filter="url(#filter6_d_1324_51)">
<path d="M668.165 178.407H111.281V169.848C111.288 165.375 113.07 161.088 116.238 157.927C119.405 154.766 123.698 152.988 128.176 152.984H651.27C655.748 152.988 660.041 154.766 663.209 157.927C666.376 161.088 668.158 165.375 668.165 169.848V178.407Z" fill="#006FFF"/>
</g>
<g filter="url(#filter7_d_1324_51)">
<path d="M141.986 170.086C144.4 170.086 146.356 168.131 146.356 165.721C146.356 163.311 144.4 161.356 141.986 161.356C139.573 161.356 137.616 163.311 137.616 165.721C137.616 168.131 139.573 170.086 141.986 170.086Z" fill="white"/>
</g>
<g filter="url(#filter8_d_1324_51)">
<path d="M158.574 170.086C160.988 170.086 162.944 168.131 162.944 165.721C162.944 163.311 160.988 161.356 158.574 161.356C156.161 161.356 154.204 163.311 154.204 165.721C154.204 168.131 156.161 170.086 158.574 170.086Z" fill="white"/>
</g>
<g filter="url(#filter9_d_1324_51)">
<path d="M175.161 170.086C177.575 170.086 179.531 168.131 179.531 165.721C179.531 163.311 177.575 161.356 175.161 161.356C172.748 161.356 170.791 163.311 170.791 165.721C170.791 168.131 172.748 170.086 175.161 170.086Z" fill="white"/>
</g>
<g filter="url(#filter10_d_1324_51)">
<path d="M405.266 435.563H361.396C358.827 435.56 356.363 434.539 354.546 432.725C352.729 430.91 351.707 428.45 351.704 425.883V382.069C351.707 379.502 352.729 377.042 354.546 375.227C356.363 373.413 358.827 372.392 361.396 372.389H405.266C407.836 372.392 410.299 373.413 412.116 375.227C413.933 377.042 414.956 379.502 414.958 382.069V425.883C414.956 428.45 413.933 430.91 412.116 432.725C410.299 434.539 407.836 435.56 405.266 435.563ZM361.396 374.427C359.368 374.429 357.423 375.235 355.988 376.668C354.554 378.1 353.747 380.043 353.745 382.069V425.883C353.747 427.909 354.554 429.852 355.988 431.284C357.423 432.717 359.368 433.523 361.396 433.525H405.266C407.295 433.523 409.24 432.717 410.674 431.284C412.109 429.852 412.916 427.909 412.918 425.883V382.069C412.916 380.043 412.109 378.1 410.674 376.668C409.24 375.235 407.295 374.429 405.266 374.427H361.396Z" fill="#CCCCCC"/>
</g>
<g filter="url(#filter11_d_1324_51)">
<path d="M396.594 423.336H370.068C369.256 423.335 368.478 423.013 367.904 422.44C367.33 421.866 367.008 421.089 367.007 420.279V387.673C367.008 386.863 367.33 386.086 367.904 385.513C368.478 384.939 369.256 384.617 370.068 384.616H389.288C389.985 384.617 390.662 384.855 391.205 385.29L398.51 391.153C398.868 391.439 399.157 391.801 399.355 392.214C399.553 392.627 399.655 393.078 399.654 393.536V420.279C399.653 421.089 399.331 421.866 398.757 422.44C398.183 423.013 397.405 423.335 396.594 423.336ZM370.068 386.654C369.797 386.654 369.538 386.762 369.347 386.953C369.155 387.144 369.048 387.403 369.047 387.673V420.279C369.048 420.549 369.155 420.808 369.347 420.999C369.538 421.19 369.797 421.298 370.068 421.298H396.594C396.864 421.298 397.123 421.19 397.315 420.999C397.506 420.808 397.613 420.549 397.614 420.279V393.536C397.614 393.383 397.58 393.233 397.514 393.095C397.448 392.958 397.352 392.837 397.233 392.742L389.927 386.878C389.745 386.733 389.52 386.654 389.288 386.654H370.068Z" fill="#CCCCCC"/>
</g>
<g filter="url(#filter12_d_1324_51)">
<path d="M391.492 398.881H375.169C374.898 398.881 374.639 398.774 374.447 398.583C374.256 398.392 374.148 398.133 374.148 397.862C374.148 397.592 374.256 397.333 374.447 397.142C374.639 396.951 374.898 396.844 375.169 396.844H391.492C391.763 396.844 392.022 396.951 392.214 397.142C392.405 397.333 392.513 397.592 392.513 397.862C392.513 398.133 392.405 398.392 392.214 398.583C392.022 398.774 391.763 398.881 391.492 398.881Z" fill="#CCCCCC"/>
</g>
<g filter="url(#filter13_d_1324_51)">
<path d="M391.492 404.995H375.169C374.898 404.995 374.639 404.888 374.447 404.696C374.256 404.505 374.148 404.246 374.148 403.976C374.148 403.706 374.256 403.447 374.447 403.255C374.639 403.064 374.898 402.957 375.169 402.957H391.492C391.763 402.957 392.022 403.064 392.214 403.255C392.405 403.447 392.513 403.706 392.513 403.976C392.513 404.246 392.405 404.505 392.214 404.696C392.022 404.888 391.763 404.995 391.492 404.995Z" fill="#CCCCCC"/>
</g>
<g filter="url(#filter14_d_1324_51)">
<path d="M391.492 411.109H375.169C374.898 411.109 374.639 411.001 374.447 410.81C374.256 410.619 374.148 410.36 374.148 410.09C374.148 409.819 374.256 409.56 374.447 409.369C374.639 409.178 374.898 409.071 375.169 409.071H391.492C391.763 409.071 392.022 409.178 392.214 409.369C392.405 409.56 392.513 409.819 392.513 410.09C392.513 410.36 392.405 410.619 392.214 410.81C392.022 411.001 391.763 411.109 391.492 411.109Z" fill="#CCCCCC"/>
</g>
<g filter="url(#filter15_d_1324_51)">
<path d="M509.33 435.563H465.46C462.89 435.56 460.427 434.539 458.61 432.725C456.793 430.91 455.77 428.45 455.768 425.883V382.069C455.77 379.502 456.793 377.042 458.61 375.227C460.427 373.413 462.89 372.392 465.46 372.389H509.33C511.899 372.392 514.363 373.413 516.18 375.227C517.997 377.042 519.019 379.502 519.022 382.069V425.883C519.019 428.45 517.997 430.91 516.18 432.725C514.363 434.539 511.899 435.56 509.33 435.563ZM465.46 374.427C463.431 374.429 461.486 375.235 460.052 376.668C458.617 378.1 457.81 380.043 457.808 382.069V425.883C457.81 427.909 458.617 429.852 460.052 431.284C461.486 432.717 463.431 433.523 465.46 433.525H509.33C511.358 433.523 513.303 432.717 514.738 431.284C516.172 429.852 516.979 427.909 516.981 425.883V382.069C516.979 380.043 516.172 378.1 514.738 376.668C513.303 375.235 511.358 374.429 509.33 374.427H465.46Z" fill="#CCCCCC"/>
</g>
<g filter="url(#filter16_d_1324_51)">
<path d="M501.678 415.184H473.111C472.3 415.184 471.522 414.861 470.948 414.288C470.374 413.715 470.052 412.938 470.051 412.128V395.825C470.052 395.014 470.374 394.237 470.948 393.664C471.522 393.091 472.3 392.769 473.111 392.768H501.678C502.489 392.769 503.267 393.091 503.841 393.664C504.415 394.237 504.738 395.014 504.739 395.825V412.128C504.738 412.938 504.415 413.715 503.841 414.288C503.267 414.861 502.489 415.184 501.678 415.184ZM473.111 394.806C472.841 394.806 472.582 394.913 472.39 395.104C472.199 395.295 472.092 395.554 472.091 395.825V412.128C472.092 412.398 472.199 412.657 472.39 412.848C472.582 413.039 472.841 413.146 473.111 413.147H501.678C501.948 413.146 502.208 413.039 502.399 412.848C502.59 412.657 502.698 412.398 502.698 412.128V395.825C502.698 395.554 502.59 395.295 502.399 395.104C502.208 394.913 501.948 394.806 501.678 394.806H473.111Z" fill="#CCCCCC"/>
</g>
<g filter="url(#filter17_d_1324_51)">
<path d="M487.394 406.664C486.821 406.665 486.259 406.505 485.772 406.203L470.53 396.689C470.301 396.545 470.138 396.317 470.078 396.054C470.017 395.791 470.064 395.514 470.207 395.285C470.35 395.056 470.579 394.894 470.842 394.833C471.105 394.772 471.382 394.818 471.612 394.96L486.854 404.475C487.017 404.575 487.204 404.628 487.395 404.628C487.586 404.628 487.773 404.575 487.935 404.475L503.177 394.96C503.406 394.818 503.683 394.772 503.947 394.833C504.21 394.894 504.438 395.056 504.582 395.285C504.725 395.514 504.771 395.791 504.711 396.054C504.65 396.317 504.488 396.545 504.259 396.689L489.017 406.203C488.53 406.505 487.968 406.665 487.394 406.664Z" fill="#CCCCCC"/>
</g>
<g filter="url(#filter18_d_1324_51)">
<path d="M301.202 435.563H257.332C254.762 435.56 252.299 434.539 250.482 432.725C248.665 430.91 247.643 428.45 247.64 425.883V382.069C247.643 379.502 248.665 377.042 250.482 375.227C252.299 373.413 254.762 372.392 257.332 372.389H301.202C303.771 372.392 306.235 373.413 308.052 375.227C309.869 377.042 310.891 379.502 310.894 382.069V425.883C310.891 428.45 309.869 430.91 308.052 432.725C306.235 434.539 303.771 435.56 301.202 435.563ZM257.332 374.427C255.303 374.429 253.358 375.235 251.924 376.668C250.489 378.1 249.682 380.043 249.68 382.069V425.883C249.682 427.909 250.489 429.852 251.924 431.284C253.358 432.717 255.303 433.523 257.332 433.525H301.202C303.23 433.523 305.175 432.717 306.61 431.284C308.044 429.852 308.851 427.909 308.854 425.883V382.069C308.851 380.043 308.044 378.1 306.61 376.668C305.175 375.235 303.23 374.429 301.202 374.427H257.332Z" fill="#CCCCCC"/>
</g>
<g filter="url(#filter19_d_1324_51)">
<path d="M293.55 415.184H264.984C264.172 415.184 263.394 414.861 262.82 414.288C262.246 413.715 261.924 412.938 261.923 412.128V395.825C261.924 395.014 262.246 394.237 262.82 393.664C263.394 393.091 264.172 392.769 264.984 392.768H293.55C294.362 392.769 295.139 393.091 295.713 393.664C296.287 394.237 296.61 395.014 296.611 395.825V412.128C296.61 412.938 296.287 413.715 295.713 414.288C295.139 414.861 294.362 415.184 293.55 415.184ZM264.984 394.806C264.713 394.806 264.454 394.913 264.262 395.104C264.071 395.295 263.964 395.554 263.963 395.825V412.128C263.964 412.398 264.071 412.657 264.262 412.848C264.454 413.039 264.713 413.146 264.984 413.147H293.55C293.821 413.146 294.08 413.039 294.271 412.848C294.462 412.657 294.57 412.398 294.57 412.128V395.825C294.57 395.554 294.462 395.295 294.271 395.104C294.08 394.913 293.821 394.806 293.55 394.806H264.984Z" fill="#CCCCCC"/>
</g>
<g filter="url(#filter20_d_1324_51)">
<path d="M289.023 415.184H268.492C268.134 415.184 267.782 415.09 267.471 414.911C267.161 414.733 266.904 414.475 266.724 414.165C266.545 413.856 266.451 413.504 266.451 413.146C266.451 412.789 266.546 412.437 266.725 412.127L272.909 401.429C273.088 401.119 273.346 400.862 273.656 400.683C273.966 400.504 274.318 400.41 274.676 400.41C275.034 400.41 275.386 400.504 275.697 400.683C276.007 400.862 276.264 401.119 276.443 401.429L280.438 408.338L282.752 404.335C282.931 404.025 283.188 403.768 283.499 403.589C283.809 403.41 284.161 403.316 284.519 403.316C284.877 403.316 285.229 403.41 285.539 403.589C285.849 403.768 286.107 404.025 286.286 404.335L290.79 412.127C290.969 412.437 291.064 412.789 291.064 413.146C291.064 413.504 290.969 413.856 290.79 414.165C290.611 414.475 290.354 414.733 290.043 414.911C289.733 415.09 289.381 415.184 289.023 415.184ZM289.023 413.146L284.519 405.354L281.321 410.886C281.232 411.041 281.103 411.169 280.948 411.259C280.793 411.348 280.617 411.395 280.438 411.395C280.259 411.395 280.083 411.348 279.927 411.259C279.772 411.169 279.644 411.041 279.554 410.886L274.677 402.448L268.492 413.146H289.023Z" fill="#CCCCCC"/>
</g>
<g filter="url(#filter21_d_1324_51)">
<path d="M290.49 400.919C291.617 400.919 292.53 400.007 292.53 398.881C292.53 397.756 291.617 396.843 290.49 396.843C289.363 396.843 288.449 397.756 288.449 398.881C288.449 400.007 289.363 400.919 290.49 400.919Z" fill="#CCCCCC"/>
</g>
<g filter="url(#filter22_d_1324_51)">
<path d="M778.38 666.425L765.872 666.424L759.922 618.24L778.382 618.241L778.38 666.425Z" fill="#FFB8B8"/>
</g>
<g filter="url(#filter23_d_1324_51)">
<path d="M781.569 678.534L741.239 678.532V678.023C741.239 675.964 741.645 673.925 742.434 672.023C743.223 670.121 744.379 668.393 745.837 666.937C747.295 665.481 749.025 664.326 750.93 663.538C752.834 662.751 754.876 662.345 756.937 662.345H756.938L781.57 662.346L781.569 678.534Z" fill="#2F2E41"/>
</g>
<g filter="url(#filter24_d_1324_51)">
<path d="M829.391 666.425L816.883 666.424L810.933 618.24L829.393 618.241L829.391 666.425Z" fill="#FFB8B8"/>
</g>
<g filter="url(#filter25_d_1324_51)">
<path d="M832.581 678.534L792.251 678.532V678.023C792.251 675.964 792.657 673.925 793.446 672.023C794.235 670.121 795.391 668.393 796.849 666.937C798.306 665.481 800.037 664.326 801.941 663.538C803.846 662.751 805.887 662.345 807.949 662.345H807.95L832.582 662.346L832.581 678.534Z" fill="#2F2E41"/>
</g>
<g filter="url(#filter26_d_1324_51)">
<path d="M825.641 645.537L814.057 642.017C813.193 641.756 812.426 641.246 811.852 640.551C811.277 639.857 810.921 639.008 810.827 638.112L800.027 535.886C800.018 535.762 799.963 535.646 799.873 535.562C799.782 535.477 799.663 535.43 799.539 535.43C799.415 535.418 799.291 535.455 799.194 535.533C799.096 535.611 799.033 535.723 799.018 535.847L780.928 634.887C780.818 635.488 780.589 636.061 780.255 636.572C779.92 637.083 779.487 637.523 778.98 637.864C778.472 638.206 777.902 638.443 777.302 638.562C776.702 638.68 776.085 638.678 775.485 638.555L760.68 635.509C759.595 635.282 758.627 634.671 757.956 633.789C757.285 632.907 756.955 631.813 757.026 630.708L768.03 468.378L842.647 460.337L831.56 641.429C831.488 642.593 830.975 643.687 830.125 644.487C829.275 645.287 828.152 645.734 826.985 645.737C826.529 645.737 826.077 645.669 825.641 645.537Z" fill="#2F2E41"/>
</g>
<g filter="url(#filter27_d_1324_51)">
<path d="M825.571 327.015C839.41 327.015 850.629 315.81 850.629 301.988C850.629 288.167 839.41 276.962 825.571 276.962C811.732 276.962 800.513 288.167 800.513 301.988C800.513 315.81 811.732 327.015 825.571 327.015Z" fill="#FFB8B8"/>
</g>
<g filter="url(#filter28_d_1324_51)">
<path d="M681.27 288.353C681.543 289.826 682.136 291.221 683.007 292.44C683.879 293.66 685.007 294.673 686.313 295.41C687.619 296.146 689.071 296.588 690.566 296.703C692.061 296.819 693.564 296.606 694.968 296.079L718.276 324.077L723.769 305.969L700.794 282.157C699.751 279.86 697.9 278.025 695.593 277C693.286 275.975 690.683 275.83 688.276 276.594C685.87 277.358 683.827 278.977 682.536 281.144C681.244 283.311 680.794 285.876 681.27 288.353Z" fill="#FFB8B8"/>
</g>
<g filter="url(#filter29_d_1324_51)">
<path d="M699.528 299.959C700.009 299.159 700.723 298.524 701.575 298.139L709.516 294.556C710.377 294.17 711.335 294.057 712.262 294.233C713.189 294.409 714.039 294.865 714.698 295.539L737.631 319.11L793.505 340.769C795.178 341.758 796.638 343.067 797.803 344.621C798.968 346.175 799.816 347.943 800.296 349.823C800.777 351.704 800.882 353.661 800.605 355.583C800.327 357.504 799.674 359.352 798.681 361.021C797.688 362.69 796.376 364.147 794.819 365.309C793.262 366.471 791.491 367.315 789.607 367.793C787.723 368.271 785.763 368.373 783.84 368.094C781.916 367.815 780.067 367.16 778.397 366.166L742.509 354.355C731.616 350.772 722.397 343.36 716.567 333.496L699.511 304.649C699.184 304.095 698.977 303.477 698.904 302.837C698.831 302.197 698.893 301.549 699.088 300.935C699.195 300.593 699.343 300.266 699.528 299.959Z" fill="#006FFF"/>
</g>
<g filter="url(#filter30_d_1324_51)">
<path d="M767.915 469.331L784.094 367.589C784.954 362.18 786.958 357.015 789.973 352.439C792.987 347.864 796.942 343.981 801.576 341.051C806.209 338.121 811.414 336.209 816.845 335.444C822.275 334.679 827.806 335.078 833.071 336.614C842.275 339.273 850.156 345.263 855.174 353.414C860.193 361.566 861.988 371.293 860.21 380.696L843.283 471.556L767.915 469.331Z" fill="#006FFF"/>
</g>
<g filter="url(#filter31_d_1324_51)">
<path d="M832.489 487.535C833.74 486.71 834.795 485.621 835.58 484.344C836.364 483.067 836.859 481.634 837.029 480.146C837.199 478.658 837.04 477.15 836.563 475.73C836.087 474.31 835.304 473.011 834.271 471.925L850.999 439.573L832.16 441.581L819.163 471.995C817.452 473.85 816.482 476.267 816.436 478.789C816.39 481.31 817.272 483.761 818.915 485.677C820.557 487.592 822.846 488.839 825.348 489.182C827.85 489.525 830.39 488.939 832.489 487.535Z" fill="#FFB8B8"/>
</g>
<g filter="url(#filter32_d_1324_51)">
<path d="M836.071 466.219C835.145 466.088 834.282 465.679 833.595 465.046L827.195 459.14C826.503 458.499 826.026 457.661 825.827 456.74C825.627 455.819 825.716 454.859 826.081 453.99L838.872 423.709L837.057 363.877C837.318 361.954 837.956 360.101 838.935 358.424C839.913 356.747 841.213 355.279 842.759 354.104C844.306 352.928 846.07 352.069 847.949 351.575C849.828 351.081 851.787 350.962 853.712 351.224C855.638 351.487 857.493 352.126 859.171 353.104C860.849 354.083 862.318 355.382 863.493 356.928C864.668 358.474 865.527 360.236 866.02 362.114C866.512 363.991 866.63 365.947 866.366 367.87L869.468 405.481C870.411 416.896 867.171 428.265 860.35 437.473L840.402 464.406C840.018 464.923 839.53 465.354 838.968 465.671C838.406 465.988 837.784 466.183 837.142 466.244C836.785 466.278 836.426 466.269 836.071 466.219Z" fill="#006FFF"/>
</g>
<g opacity="0.1" filter="url(#filter33_d_1324_51)">
<path d="M845.895 388.766L844.875 421.372L826.08 453.99L841.773 417.641L845.895 388.766Z" fill="black"/>
</g>
<g filter="url(#filter34_d_1324_51)">
<path d="M822.7 306.691C821.126 306.896 819.531 306.523 818.212 305.641C816.893 304.76 815.939 303.431 815.527 301.9C815.13 300.138 814.26 298.518 813.01 297.212C811.761 295.906 810.18 294.965 808.435 294.489C803.839 293.44 798.221 295.601 794.853 292.123C794.131 291.328 793.61 290.375 793.33 289.34C793.051 288.305 793.022 287.218 793.245 286.17C793.866 282.79 796.287 280.236 798.921 278.194C804.465 273.916 811.175 271.412 818.169 271.01C821.789 270.905 825.412 271.085 829.005 271.548C832.766 271.785 836.486 272.464 840.088 273.571C844.192 275.118 847.839 277.672 850.692 280.999C853.546 284.326 855.513 288.318 856.414 292.605C857.237 296.905 857.11 301.334 856.043 305.58C854.976 309.827 852.993 313.79 850.234 317.192C846.931 321.3 842.671 324.539 837.827 326.626C836.673 327.17 835.351 327.237 834.148 326.813C831.131 325.615 831.624 321.882 833 319.392C834.472 316.728 836.737 314.148 835.553 310.906C834.96 309.402 833.821 308.178 832.363 307.476C829.363 305.948 826.009 306.31 822.784 306.682L822.7 306.691Z" fill="#2F2E41"/>
</g>
<g filter="url(#filter35_d_1324_51)">
<path d="M672.896 320.824H362.746C358.283 320.819 354.004 319.046 350.848 315.894C347.692 312.742 345.917 308.469 345.912 304.011V237.781C345.917 233.323 347.692 229.05 350.848 225.898C354.004 222.746 358.283 220.973 362.746 220.968H672.896C677.359 220.973 681.638 222.746 684.794 225.898C687.95 229.05 689.725 233.323 689.73 237.781V304.011C689.725 308.469 687.95 312.742 684.794 315.894C681.638 319.046 677.359 320.819 672.896 320.824Z" fill="white"/>
</g>
<g filter="url(#filter36_d_1324_51)">
<path d="M672.896 321.334H362.745C358.147 321.328 353.739 319.502 350.487 316.254C347.236 313.007 345.407 308.604 345.401 304.012V237.781C345.407 233.188 347.236 228.785 350.487 225.538C353.739 222.291 358.147 220.464 362.745 220.459H672.896C677.494 220.464 681.902 222.291 685.154 225.538C688.405 228.785 690.234 233.188 690.24 237.781V304.012C690.234 308.604 688.405 313.007 685.154 316.254C681.902 319.502 677.494 321.328 672.896 321.334ZM362.745 222.497C358.688 222.501 354.798 224.113 351.929 226.978C349.06 229.844 347.446 233.729 347.442 237.781V304.012C347.446 308.064 349.06 311.949 351.929 314.814C354.798 317.679 358.688 319.291 362.745 319.296H672.896C676.953 319.291 680.843 317.679 683.712 314.814C686.581 311.949 688.195 308.064 688.199 304.012V237.781C688.195 233.729 686.581 229.844 683.712 226.978C680.843 224.113 676.953 222.501 672.896 222.497H362.745Z" fill="#3F3D56"/>
</g>
<g filter="url(#filter37_d_1324_51)">
<path d="M635.147 304.521H400.494C396.031 304.516 391.752 302.743 388.596 299.591C385.44 296.44 383.665 292.166 383.66 287.709V253.065C383.665 248.608 385.44 244.334 388.596 241.182C391.752 238.03 396.031 236.257 400.494 236.252H635.147C639.61 236.257 643.889 238.03 647.045 241.182C650.201 244.334 651.976 248.608 651.981 253.065V287.709C651.976 292.166 650.201 296.44 647.045 299.591C643.889 302.743 639.61 304.516 635.147 304.521Z" fill="#F2F2F2"/>
</g>
<g filter="url(#filter38_d_1324_51)">
<path d="M450.99 285.848C462.108 285.848 471.121 276.847 471.121 265.742C471.121 254.638 462.108 245.636 450.99 245.636C439.872 245.636 430.858 254.638 430.858 265.742C430.858 276.847 439.872 285.848 450.99 285.848Z" fill="#FF6584"/>
</g>
<g filter="url(#filter39_d_1324_51)">
<path d="M620.565 302.492L592.149 278.69L564.223 255.299C563.486 254.682 562.555 254.344 561.593 254.346C560.631 254.348 559.701 254.689 558.966 255.309L531.131 278.808L524.332 284.548L514.081 275.961L482.926 249.865C482.189 249.248 481.257 248.91 480.295 248.912C479.334 248.914 478.404 249.255 477.669 249.875L446.615 276.09L415.073 302.719C414.913 302.854 414.798 303.034 414.745 303.236C414.691 303.438 414.701 303.652 414.773 303.848C414.846 304.044 414.976 304.214 415.148 304.333C415.32 304.453 415.524 304.516 415.733 304.516L480.402 304.392L500.872 304.352L500.672 304.521L561.69 304.404L619.911 304.292C620.12 304.292 620.324 304.227 620.496 304.107C620.667 303.987 620.797 303.817 620.868 303.62C620.94 303.424 620.949 303.21 620.895 303.009C620.84 302.807 620.725 302.626 620.565 302.492Z" fill="#3F3D56"/>
</g>
<g filter="url(#filter40_d_1324_51)">
<path d="M610.277 140.411C609.462 139.088 608.386 137.945 607.114 137.052C605.842 136.158 604.402 135.533 602.88 135.214C602.322 135.097 601.756 135.025 601.187 135L523.455 65.5899C521.928 64.0225 519.891 63.0506 517.711 62.849C517.281 62.7996 516.848 62.786 516.415 62.8082C514.622 62.8896 512.891 63.4911 511.435 64.5393C509.978 65.5874 508.859 67.0367 508.214 68.71C507.568 70.3833 507.426 72.2081 507.802 73.9612C508.179 75.7143 509.059 77.3198 510.335 78.5813L540.095 104.493L588.964 147.034C589.004 147.835 589.124 148.63 589.321 149.408C589.906 151.661 591.163 153.683 592.925 155.206C594.687 156.729 596.87 157.681 599.187 157.936C601.299 158.183 603.439 157.83 605.359 156.917C606.882 156.206 608.233 155.174 609.318 153.891C609.43 153.759 609.532 153.636 609.634 153.494C611.061 151.637 611.886 149.39 612.001 147.052C612.116 144.715 611.515 142.398 610.277 140.411Z" fill="#FFB8B8"/>
</g>
<g filter="url(#filter41_d_1324_51)">
<path d="M477.321 207.304L476.597 177.897L475.984 153.494L475.566 136.416L474.739 103.128C474.576 101.345 473.896 99.649 472.784 98.246C471.671 96.8429 470.174 95.7937 468.474 95.2264C466.775 94.6592 464.946 94.5984 463.213 95.0515C461.479 95.5046 459.915 96.452 458.712 97.7781C458.428 98.0811 458.172 98.4084 457.946 98.7563C456.69 100.553 456.125 102.742 456.355 104.921L458.171 153.494L459.079 177.897L460.242 209.026C459.906 209.483 459.603 209.963 459.334 210.463C458.609 211.837 458.17 213.343 458.046 214.892C457.921 216.44 458.113 217.998 458.61 219.47C459.128 221.014 459.968 222.43 461.074 223.626C462.18 224.822 463.528 225.771 465.028 226.409C466.527 227.047 468.146 227.361 469.776 227.329C471.406 227.298 473.01 226.921 474.484 226.225C476.196 225.417 477.682 224.2 478.812 222.682C479.941 221.164 480.678 219.391 480.958 217.521C481.239 215.65 481.054 213.74 480.419 211.958C479.785 210.176 478.721 208.577 477.321 207.304Z" fill="#FFB8B8"/>
</g>
<g filter="url(#filter42_d_1324_51)">
<path d="M547.309 124.006L540.096 104.493L528.424 72.8854C527.582 70.5857 526.232 68.5049 524.475 66.7974C522.718 65.0899 520.598 63.7995 518.273 63.0221C518.089 62.9609 517.896 62.8998 517.712 62.8488C515.46 62.1661 513.086 61.9783 510.755 62.2985C508.423 62.6186 506.188 63.439 504.204 64.7033L464.894 89.6061C461.294 91.8816 458.721 95.4655 457.718 99.6009C456.714 103.736 457.36 108.099 459.518 111.768C464.434 120.258 469.79 128.485 475.566 136.416C480.147 142.642 488.676 143.304 490.156 153.494H519.14L548.482 127.185L547.309 124.006Z" fill="#CCCCCC"/>
</g>
<g filter="url(#filter43_d_1324_51)">
<path d="M97.2117 362.48C110.268 362.48 120.852 351.909 120.852 338.869C120.852 325.83 110.268 315.259 97.2117 315.259C84.1555 315.259 73.5713 325.83 73.5713 338.869C73.5713 351.909 84.1555 362.48 97.2117 362.48Z" fill="#A0616A"/>
</g>
<g filter="url(#filter44_d_1324_51)">
<path d="M155.249 322.617C155.482 322.802 155.708 322.998 155.927 323.206C157.013 324.228 157.87 325.467 158.443 326.843C159.016 328.219 159.292 329.7 159.251 331.189C159.211 332.679 158.856 334.143 158.21 335.486C157.564 336.829 156.641 338.021 155.501 338.983C155.236 339.205 154.958 339.414 154.671 339.608L156.271 393.555C156.316 395.321 155.791 397.055 154.772 398.499C153.752 399.943 152.294 401.02 150.614 401.571L150.516 401.592L106.658 406.257C105.465 406.384 104.26 406.273 103.11 405.932C101.961 405.59 100.891 405.025 99.9612 404.268C99.0319 403.512 98.2617 402.579 97.6954 401.523C97.1291 400.467 96.7778 399.31 96.6617 398.118C96.5457 396.926 96.6673 395.723 97.0194 394.578C97.3715 393.433 97.9472 392.37 98.7132 391.448C99.4792 390.527 100.42 389.766 101.482 389.21C102.544 388.654 103.706 388.314 104.901 388.209L136.165 385.459L141.572 338.739C141.218 338.427 140.887 338.09 140.581 337.731C138.885 335.727 137.996 333.165 138.086 330.543C138.176 327.922 139.238 325.427 141.066 323.543C142.894 321.659 145.358 320.522 147.979 320.35C150.6 320.179 153.191 320.987 155.249 322.617Z" fill="#A0616A"/>
</g>
<g filter="url(#filter45_d_1324_51)">
<path d="M136.147 667.468H147.948L153.561 622.01H136.145L136.147 667.468Z" fill="#A0616A"/>
</g>
<g filter="url(#filter46_d_1324_51)">
<path d="M133.138 663.621L156.377 663.62C158.321 663.62 160.248 664.002 162.045 664.745C163.842 665.489 165.474 666.578 166.85 667.952C168.225 669.325 169.316 670.956 170.06 672.75C170.804 674.545 171.187 676.468 171.187 678.41V678.891L133.138 678.892L133.138 663.621Z" fill="#2F2E41"/>
</g>
<g filter="url(#filter47_d_1324_51)">
<path d="M18.8594 651.173L28.9984 657.203L57.1089 621.013L42.1441 612.115L18.8594 651.173Z" fill="#A0616A"/>
</g>
<g filter="url(#filter48_d_1324_51)">
<path d="M18.2436 646.33L38.2112 658.203C39.8823 659.197 41.3418 660.51 42.5049 662.067C43.668 663.624 44.5126 665.394 44.9907 667.277C45.4687 669.16 45.5707 671.118 45.2909 673.04C45.0111 674.962 44.355 676.811 43.3599 678.479L43.1137 678.892L10.4209 659.452L18.2436 646.33Z" fill="#2F2E41"/>
</g>
<g filter="url(#filter49_d_1324_51)">
<path d="M150.732 651.413H137.518C136.448 651.414 135.416 651.02 134.62 650.305C133.825 649.591 133.323 648.607 133.211 647.544L119.89 522.482C119.856 522.167 119.72 521.872 119.502 521.642C119.284 521.413 118.996 521.261 118.683 521.211C118.37 521.161 118.049 521.215 117.77 521.365C117.491 521.515 117.269 521.752 117.138 522.041L93.1062 575.187L50.5589 644.478C50.0082 645.366 49.1556 646.027 48.1572 646.338C47.1588 646.65 46.0814 646.592 45.1222 646.175L28.1249 638.706C27.5629 638.459 27.0599 638.096 26.6492 637.64C26.2386 637.184 25.9297 636.646 25.7431 636.061C25.5564 635.477 25.4963 634.86 25.5666 634.251C25.6369 633.641 25.8361 633.054 26.1509 632.527L65.2636 567.12L77.2592 512.01C73.4864 488.111 89.6601 452.58 89.8241 452.223L89.9042 452.049L134.455 434.658L134.679 434.931C152.248 492.515 162.954 554.486 155.049 647.449C154.952 648.528 154.456 649.531 153.657 650.264C152.859 650.997 151.816 651.406 150.732 651.413Z" fill="#2F2E41"/>
</g>
<g filter="url(#filter50_d_1324_51)">
<path d="M88.109 457.872L87.9015 457.437C87.8024 457.228 77.8961 436.361 70.2597 414.059C68.7921 409.746 68.2373 405.176 68.6304 400.638C69.0236 396.1 70.3561 391.692 72.5436 387.695C74.7595 383.657 77.791 380.122 81.4462 377.315C85.1013 374.508 89.3003 372.49 93.7772 371.388C101.549 369.528 109.732 370.518 116.835 374.178C123.937 377.838 129.487 383.924 132.472 391.328C138.53 406.457 136.599 422.604 134.782 435.303L134.746 435.557L134.515 435.668L88.109 457.872Z" fill="#3F3D56"/>
</g>
<g filter="url(#filter51_d_1324_51)">
<path d="M125.875 325.532H88.3369V309.19C96.5761 305.921 104.639 303.141 109.512 309.19C113.852 309.19 118.014 310.912 121.083 313.976C124.151 317.041 125.875 321.198 125.875 325.532Z" fill="#2F2E41"/>
</g>
<g filter="url(#filter52_d_1324_51)">
<path d="M86.2585 306.306C63.8174 306.306 57.5361 334.4 57.5361 350.248C57.5361 359.087 61.5385 362.248 67.8277 363.318L70.0489 351.487L75.2511 363.827C77.0177 363.836 78.8737 363.802 80.7978 363.766L82.5616 360.139L86.4949 363.701C102.248 363.725 114.98 366.018 114.98 350.248C114.98 334.4 109.472 306.306 86.2585 306.306Z" fill="#2F2E41"/>
</g>
<g filter="url(#filter53_d_1324_51)">
<path d="M194.588 344.769H150.718C148.148 344.766 145.684 343.746 143.867 341.931C142.05 340.116 141.028 337.656 141.025 335.089V291.275C141.028 288.709 142.05 286.248 143.867 284.434C145.684 282.619 148.148 281.598 150.718 281.595H194.588C197.157 281.598 199.621 282.619 201.438 284.434C203.255 286.248 204.277 288.709 204.28 291.275V335.089C204.277 337.656 203.255 340.116 201.438 341.931C199.621 343.746 197.157 344.766 194.588 344.769Z" fill="white"/>
</g>
<g filter="url(#filter54_d_1324_51)">
<path d="M194.588 344.769H150.718C148.148 344.766 145.684 343.746 143.867 341.931C142.05 340.116 141.028 337.656 141.025 335.089V291.275C141.028 288.709 142.05 286.248 143.867 284.434C145.684 282.619 148.148 281.598 150.718 281.595H194.588C197.157 281.598 199.621 282.619 201.438 284.434C203.255 286.248 204.277 288.709 204.28 291.275V335.089C204.277 337.656 203.255 340.116 201.438 341.931C199.621 343.746 197.157 344.766 194.588 344.769ZM150.718 283.633C148.689 283.635 146.744 284.441 145.31 285.874C143.875 287.307 143.068 289.249 143.066 291.275V335.089C143.068 337.116 143.875 339.058 145.31 340.491C146.744 341.923 148.689 342.729 150.718 342.732H194.588C196.616 342.729 198.561 341.923 199.996 340.491C201.43 339.058 202.237 337.116 202.239 335.089V291.275C202.237 289.249 201.43 287.307 199.996 285.874C198.561 284.441 196.616 283.635 194.588 283.633H150.718Z" fill="#3F3D56"/>
</g>
<g filter="url(#filter55_d_1324_51)">
<path d="M186.936 326.938H158.369C157.558 326.937 156.78 326.615 156.206 326.042C155.632 325.469 155.309 324.692 155.309 323.881V302.483C155.309 301.673 155.632 300.896 156.206 300.323C156.78 299.75 157.558 299.427 158.369 299.427H166.411C166.934 299.425 167.449 299.557 167.906 299.812C168.362 300.067 168.745 300.435 169.018 300.881L171.261 304.521H186.936C187.747 304.522 188.525 304.844 189.099 305.418C189.673 305.991 189.996 306.768 189.996 307.578V323.881C189.996 324.692 189.673 325.469 189.099 326.042C188.525 326.615 187.747 326.937 186.936 326.938Z" fill="#006FFF"/>
</g>
<g filter="url(#filter56_d_1324_51)">
<path d="M186.007 337.748C186.15 338.009 186.281 338.277 186.402 338.553C187.006 339.916 187.315 341.39 187.309 342.881C187.302 344.371 186.98 345.843 186.365 347.2C185.749 348.557 184.853 349.769 183.735 350.756C182.618 351.744 181.304 352.484 179.88 352.929C179.549 353.031 179.212 353.116 178.872 353.183L159.386 403.524C158.742 405.169 157.584 406.563 156.084 407.499C154.583 408.435 152.821 408.863 151.058 408.719L150.96 408.701L108.726 396.002C107.578 395.657 106.509 395.088 105.582 394.328C104.656 393.568 103.889 392.632 103.326 391.575C102.763 390.517 102.416 389.358 102.304 388.166C102.192 386.974 102.318 385.771 102.674 384.627C103.031 383.484 103.61 382.422 104.379 381.503C105.149 380.584 106.093 379.827 107.157 379.275C108.221 378.723 109.384 378.386 110.579 378.286C111.774 378.185 112.977 378.321 114.119 378.688L144.002 388.269L167.137 347.306C166.933 346.881 166.758 346.442 166.615 345.992C165.832 343.489 166.008 340.783 167.109 338.402C168.21 336.02 170.158 334.133 172.575 333.105C174.992 332.078 177.705 331.984 180.187 332.842C182.669 333.7 184.743 335.448 186.007 337.748Z" fill="#A0616A"/>
</g>
<defs>
<filter id="filter0_d_1324_51" x="425.142" y="0" width="95.9893" height="93.2969" filterUnits="userSpaceOnUse" color-interpolation-filters="sRGB">
<feFlood flood-opacity="0" result="BackgroundImageFix"/>
<feColorMatrix in="SourceAlpha" type="matrix" values="0 0 0 0 0 0 0 0 0 0 0 0 0 0 0 0 0 0 127 0" result="hardAlpha"/>
<feOffset dy="4"/>
<feGaussianBlur stdDeviation="5"/>
<feComposite in2="hardAlpha" operator="out"/>
<feColorMatrix type="matrix" values="0 0 0 0 0 0 0 0 0 0 0 0 0 0 0 0 0 0 0.25 0"/>
<feBlend mode="normal" in2="BackgroundImageFix" result="effect1_dropShadow_1324_51"/>
<feBlend mode="normal" in="SourceGraphic" in2="effect1_dropShadow_1324_51" result="shape"/>
</filter>
<filter id="filter1_d_1324_51" x="436.151" y="14.8032" width="70.1162" height="70.0522" filterUnits="userSpaceOnUse" color-interpolation-filters="sRGB">
<feFlood flood-opacity="0" result="BackgroundImageFix"/>
<feColorMatrix in="SourceAlpha" type="matrix" values="0 0 0 0 0 0 0 0 0 0 0 0 0 0 0 0 0 0 127 0" result="hardAlpha"/>
<feOffset dy="4"/>
<feGaussianBlur stdDeviation="5"/>
<feComposite in2="hardAlpha" operator="out"/>
<feColorMatrix type="matrix" values="0 0 0 0 0 0 0 0 0 0 0 0 0 0 0 0 0 0 0.25 0"/>
<feBlend mode="normal" in2="BackgroundImageFix" result="effect1_dropShadow_1324_51"/>
<feBlend mode="normal" in="SourceGraphic" in2="effect1_dropShadow_1324_51" result="shape"/>
</filter>
<filter id="filter2_d_1324_51" x="496.448" y="117.985" width="123.207" height="73.9121" filterUnits="userSpaceOnUse" color-interpolation-filters="sRGB">
<feFlood flood-opacity="0" result="BackgroundImageFix"/>
<feColorMatrix in="SourceAlpha" type="matrix" values="0 0 0 0 0 0 0 0 0 0 0 0 0 0 0 0 0 0 127 0" result="hardAlpha"/>
<feOffset dy="4"/>
<feGaussianBlur stdDeviation="5"/>
<feComposite in2="hardAlpha" operator="out"/>
<feColorMatrix type="matrix" values="0 0 0 0 0 0 0 0 0 0 0 0 0 0 0 0 0 0 0.25 0"/>
<feBlend mode="normal" in2="BackgroundImageFix" result="effect1_dropShadow_1324_51"/>
<feBlend mode="normal" in="SourceGraphic" in2="effect1_dropShadow_1324_51" result="shape"/>
</filter>
<filter id="filter3_d_1324_51" x="431.442" y="9.97876" width="75.1504" height="59.926" filterUnits="userSpaceOnUse" color-interpolation-filters="sRGB">
<feFlood flood-opacity="0" result="BackgroundImageFix"/>
<feColorMatrix in="SourceAlpha" type="matrix" values="0 0 0 0 0 0 0 0 0 0 0 0 0 0 0 0 0 0 127 0" result="hardAlpha"/>
<feOffset dy="4"/>
<feGaussianBlur stdDeviation="5"/>
<feComposite in2="hardAlpha" operator="out"/>
<feColorMatrix type="matrix" values="0 0 0 0 0 0 0 0 0 0 0 0 0 0 0 0 0 0 0.25 0"/>
<feBlend mode="normal" in2="BackgroundImageFix" result="effect1_dropShadow_1324_51"/>
<feBlend mode="normal" in="SourceGraphic" in2="effect1_dropShadow_1324_51" result="shape"/>
</filter>
<filter id="filter4_d_1324_51" x="101.518" y="161.051" width="576.882" height="363.12" filterUnits="userSpaceOnUse" color-interpolation-filters="sRGB">
<feFlood flood-opacity="0" result="BackgroundImageFix"/>
<feColorMatrix in="SourceAlpha" type="matrix" values="0 0 0 0 0 0 0 0 0 0 0 0 0 0 0 0 0 0 127 0" result="hardAlpha"/>
<feOffset dy="4"/>
<feGaussianBlur stdDeviation="5"/>
<feComposite in2="hardAlpha" operator="out"/>
<feColorMatrix type="matrix" values="0 0 0 0 0 0 0 0 0 0 0 0 0 0 0 0 0 0 0.25 0"/>
<feBlend mode="normal" in2="BackgroundImageFix" result="effect1_dropShadow_1324_51"/>
<feBlend mode="normal" in="SourceGraphic" in2="effect1_dropShadow_1324_51" result="shape"/>
</filter>
<filter id="filter5_d_1324_51" x="118.352" y="188.251" width="543.214" height="319.107" filterUnits="userSpaceOnUse" color-interpolation-filters="sRGB">
<feFlood flood-opacity="0" result="BackgroundImageFix"/>
<feColorMatrix in="SourceAlpha" type="matrix" values="0 0 0 0 0 0 0 0 0 0 0 0 0 0 0 0 0 0 127 0" result="hardAlpha"/>
<feOffset dy="4"/>
<feGaussianBlur stdDeviation="5"/>
<feComposite in2="hardAlpha" operator="out"/>
<feColorMatrix type="matrix" values="0 0 0 0 0 0 0 0 0 0 0 0 0 0 0 0 0 0 0.25 0"/>
<feBlend mode="normal" in2="BackgroundImageFix" result="effect1_dropShadow_1324_51"/>
<feBlend mode="normal" in="SourceGraphic" in2="effect1_dropShadow_1324_51" result="shape"/>
</filter>
<filter id="filter6_d_1324_51" x="101.281" y="146.984" width="576.884" height="45.4226" filterUnits="userSpaceOnUse" color-interpolation-filters="sRGB">
<feFlood flood-opacity="0" result="BackgroundImageFix"/>
<feColorMatrix in="SourceAlpha" type="matrix" values="0 0 0 0 0 0 0 0 0 0 0 0 0 0 0 0 0 0 127 0" result="hardAlpha"/>
<feOffset dy="4"/>
<feGaussianBlur stdDeviation="5"/>
<feComposite in2="hardAlpha" operator="out"/>
<feColorMatrix type="matrix" values="0 0 0 0 0 0 0 0 0 0 0 0 0 0 0 0 0 0 0.25 0"/>
<feBlend mode="normal" in2="BackgroundImageFix" result="effect1_dropShadow_1324_51"/>
<feBlend mode="normal" in="SourceGraphic" in2="effect1_dropShadow_1324_51" result="shape"/>
</filter>
<filter id="filter7_d_1324_51" x="127.616" y="155.356" width="28.7402" height="28.729" filterUnits="userSpaceOnUse" color-interpolation-filters="sRGB">
<feFlood flood-opacity="0" result="BackgroundImageFix"/>
<feColorMatrix in="SourceAlpha" type="matrix" values="0 0 0 0 0 0 0 0 0 0 0 0 0 0 0 0 0 0 127 0" result="hardAlpha"/>
<feOffset dy="4"/>
<feGaussianBlur stdDeviation="5"/>
<feComposite in2="hardAlpha" operator="out"/>
<feColorMatrix type="matrix" values="0 0 0 0 0 0 0 0 0 0 0 0 0 0 0 0 0 0 0.25 0"/>
<feBlend mode="normal" in2="BackgroundImageFix" result="effect1_dropShadow_1324_51"/>
<feBlend mode="normal" in="SourceGraphic" in2="effect1_dropShadow_1324_51" result="shape"/>
</filter>
<filter id="filter8_d_1324_51" x="144.204" y="155.356" width="28.7402" height="28.729" filterUnits="userSpaceOnUse" color-interpolation-filters="sRGB">
<feFlood flood-opacity="0" result="BackgroundImageFix"/>
<feColorMatrix in="SourceAlpha" type="matrix" values="0 0 0 0 0 0 0 0 0 0 0 0 0 0 0 0 0 0 127 0" result="hardAlpha"/>
<feOffset dy="4"/>
<feGaussianBlur stdDeviation="5"/>
<feComposite in2="hardAlpha" operator="out"/>
<feColorMatrix type="matrix" values="0 0 0 0 0 0 0 0 0 0 0 0 0 0 0 0 0 0 0.25 0"/>
<feBlend mode="normal" in2="BackgroundImageFix" result="effect1_dropShadow_1324_51"/>
<feBlend mode="normal" in="SourceGraphic" in2="effect1_dropShadow_1324_51" result="shape"/>
</filter>
<filter id="filter9_d_1324_51" x="160.791" y="155.356" width="28.7402" height="28.729" filterUnits="userSpaceOnUse" color-interpolation-filters="sRGB">
<feFlood flood-opacity="0" result="BackgroundImageFix"/>
<feColorMatrix in="SourceAlpha" type="matrix" values="0 0 0 0 0 0 0 0 0 0 0 0 0 0 0 0 0 0 127 0" result="hardAlpha"/>
<feOffset dy="4"/>
<feGaussianBlur stdDeviation="5"/>
<feComposite in2="hardAlpha" operator="out"/>
<feColorMatrix type="matrix" values="0 0 0 0 0 0 0 0 0 0 0 0 0 0 0 0 0 0 0.25 0"/>
<feBlend mode="normal" in2="BackgroundImageFix" result="effect1_dropShadow_1324_51"/>
<feBlend mode="normal" in="SourceGraphic" in2="effect1_dropShadow_1324_51" result="shape"/>
</filter>
<filter id="filter10_d_1324_51" x="341.704" y="366.389" width="83.2539" height="83.1741" filterUnits="userSpaceOnUse" color-interpolation-filters="sRGB">
<feFlood flood-opacity="0" result="BackgroundImageFix"/>
<feColorMatrix in="SourceAlpha" type="matrix" values="0 0 0 0 0 0 0 0 0 0 0 0 0 0 0 0 0 0 127 0" result="hardAlpha"/>
<feOffset dy="4"/>
<feGaussianBlur stdDeviation="5"/>
<feComposite in2="hardAlpha" operator="out"/>
<feColorMatrix type="matrix" values="0 0 0 0 0 0 0 0 0 0 0 0 0 0 0 0 0 0 0.25 0"/>
<feBlend mode="normal" in2="BackgroundImageFix" result="effect1_dropShadow_1324_51"/>
<feBlend mode="normal" in="SourceGraphic" in2="effect1_dropShadow_1324_51" result="shape"/>
</filter>
<filter id="filter11_d_1324_51" x="357.007" y="378.616" width="52.6475" height="58.7197" filterUnits="userSpaceOnUse" color-interpolation-filters="sRGB">
<feFlood flood-opacity="0" result="BackgroundImageFix"/>
<feColorMatrix in="SourceAlpha" type="matrix" values="0 0 0 0 0 0 0 0 0 0 0 0 0 0 0 0 0 0 127 0" result="hardAlpha"/>
<feOffset dy="4"/>
<feGaussianBlur stdDeviation="5"/>
<feComposite in2="hardAlpha" operator="out"/>
<feColorMatrix type="matrix" values="0 0 0 0 0 0 0 0 0 0 0 0 0 0 0 0 0 0 0.25 0"/>
<feBlend mode="normal" in2="BackgroundImageFix" result="effect1_dropShadow_1324_51"/>
<feBlend mode="normal" in="SourceGraphic" in2="effect1_dropShadow_1324_51" result="shape"/>
</filter>
<filter id="filter12_d_1324_51" x="364.148" y="390.844" width="38.3643" height="22.0378" filterUnits="userSpaceOnUse" color-interpolation-filters="sRGB">
<feFlood flood-opacity="0" result="BackgroundImageFix"/>
<feColorMatrix in="SourceAlpha" type="matrix" values="0 0 0 0 0 0 0 0 0 0 0 0 0 0 0 0 0 0 127 0" result="hardAlpha"/>
<feOffset dy="4"/>
<feGaussianBlur stdDeviation="5"/>
<feComposite in2="hardAlpha" operator="out"/>
<feColorMatrix type="matrix" values="0 0 0 0 0 0 0 0 0 0 0 0 0 0 0 0 0 0 0.25 0"/>
<feBlend mode="normal" in2="BackgroundImageFix" result="effect1_dropShadow_1324_51"/>
<feBlend mode="normal" in="SourceGraphic" in2="effect1_dropShadow_1324_51" result="shape"/>
</filter>
<filter id="filter13_d_1324_51" x="364.148" y="396.957" width="38.3643" height="22.0378" filterUnits="userSpaceOnUse" color-interpolation-filters="sRGB">
<feFlood flood-opacity="0" result="BackgroundImageFix"/>
<feColorMatrix in="SourceAlpha" type="matrix" values="0 0 0 0 0 0 0 0 0 0 0 0 0 0 0 0 0 0 127 0" result="hardAlpha"/>
<feOffset dy="4"/>
<feGaussianBlur stdDeviation="5"/>
<feComposite in2="hardAlpha" operator="out"/>
<feColorMatrix type="matrix" values="0 0 0 0 0 0 0 0 0 0 0 0 0 0 0 0 0 0 0.25 0"/>
<feBlend mode="normal" in2="BackgroundImageFix" result="effect1_dropShadow_1324_51"/>
<feBlend mode="normal" in="SourceGraphic" in2="effect1_dropShadow_1324_51" result="shape"/>
</filter>
<filter id="filter14_d_1324_51" x="364.148" y="403.071" width="38.3643" height="22.0378" filterUnits="userSpaceOnUse" color-interpolation-filters="sRGB">
<feFlood flood-opacity="0" result="BackgroundImageFix"/>
<feColorMatrix in="SourceAlpha" type="matrix" values="0 0 0 0 0 0 0 0 0 0 0 0 0 0 0 0 0 0 127 0" result="hardAlpha"/>
<feOffset dy="4"/>
<feGaussianBlur stdDeviation="5"/>
<feComposite in2="hardAlpha" operator="out"/>
<feColorMatrix type="matrix" values="0 0 0 0 0 0 0 0 0 0 0 0 0 0 0 0 0 0 0.25 0"/>
<feBlend mode="normal" in2="BackgroundImageFix" result="effect1_dropShadow_1324_51"/>
<feBlend mode="normal" in="SourceGraphic" in2="effect1_dropShadow_1324_51" result="shape"/>
</filter>
<filter id="filter15_d_1324_51" x="445.768" y="366.389" width="83.2539" height="83.1741" filterUnits="userSpaceOnUse" color-interpolation-filters="sRGB">
<feFlood flood-opacity="0" result="BackgroundImageFix"/>
<feColorMatrix in="SourceAlpha" type="matrix" values="0 0 0 0 0 0 0 0 0 0 0 0 0 0 0 0 0 0 127 0" result="hardAlpha"/>
<feOffset dy="4"/>
<feGaussianBlur stdDeviation="5"/>
<feComposite in2="hardAlpha" operator="out"/>
<feColorMatrix type="matrix" values="0 0 0 0 0 0 0 0 0 0 0 0 0 0 0 0 0 0 0.25 0"/>
<feBlend mode="normal" in2="BackgroundImageFix" result="effect1_dropShadow_1324_51"/>
<feBlend mode="normal" in="SourceGraphic" in2="effect1_dropShadow_1324_51" result="shape"/>
</filter>
<filter id="filter16_d_1324_51" x="460.051" y="386.768" width="54.6875" height="42.4167" filterUnits="userSpaceOnUse" color-interpolation-filters="sRGB">
<feFlood flood-opacity="0" result="BackgroundImageFix"/>
<feColorMatrix in="SourceAlpha" type="matrix" values="0 0 0 0 0 0 0 0 0 0 0 0 0 0 0 0 0 0 127 0" result="hardAlpha"/>
<feOffset dy="4"/>
<feGaussianBlur stdDeviation="5"/>
<feComposite in2="hardAlpha" operator="out"/>
<feColorMatrix type="matrix" values="0 0 0 0 0 0 0 0 0 0 0 0 0 0 0 0 0 0 0.25 0"/>
<feBlend mode="normal" in2="BackgroundImageFix" result="effect1_dropShadow_1324_51"/>
<feBlend mode="normal" in="SourceGraphic" in2="effect1_dropShadow_1324_51" result="shape"/>
</filter>
<filter id="filter17_d_1324_51" x="460.052" y="388.806" width="54.6846" height="31.8579" filterUnits="userSpaceOnUse" color-interpolation-filters="sRGB">
<feFlood flood-opacity="0" result="BackgroundImageFix"/>
<feColorMatrix in="SourceAlpha" type="matrix" values="0 0 0 0 0 0 0 0 0 0 0 0 0 0 0 0 0 0 127 0" result="hardAlpha"/>
<feOffset dy="4"/>
<feGaussianBlur stdDeviation="5"/>
<feComposite in2="hardAlpha" operator="out"/>
<feColorMatrix type="matrix" values="0 0 0 0 0 0 0 0 0 0 0 0 0 0 0 0 0 0 0.25 0"/>
<feBlend mode="normal" in2="BackgroundImageFix" result="effect1_dropShadow_1324_51"/>
<feBlend mode="normal" in="SourceGraphic" in2="effect1_dropShadow_1324_51" result="shape"/>
</filter>
<filter id="filter18_d_1324_51" x="237.64" y="366.389" width="83.2539" height="83.1741" filterUnits="userSpaceOnUse" color-interpolation-filters="sRGB">
<feFlood flood-opacity="0" result="BackgroundImageFix"/>
<feColorMatrix in="SourceAlpha" type="matrix" values="0 0 0 0 0 0 0 0 0 0 0 0 0 0 0 0 0 0 127 0" result="hardAlpha"/>
<feOffset dy="4"/>
<feGaussianBlur stdDeviation="5"/>
<feComposite in2="hardAlpha" operator="out"/>
<feColorMatrix type="matrix" values="0 0 0 0 0 0 0 0 0 0 0 0 0 0 0 0 0 0 0.25 0"/>
<feBlend mode="normal" in2="BackgroundImageFix" result="effect1_dropShadow_1324_51"/>
<feBlend mode="normal" in="SourceGraphic" in2="effect1_dropShadow_1324_51" result="shape"/>
</filter>
<filter id="filter19_d_1324_51" x="251.923" y="386.768" width="54.6875" height="42.4167" filterUnits="userSpaceOnUse" color-interpolation-filters="sRGB">
<feFlood flood-opacity="0" result="BackgroundImageFix"/>
<feColorMatrix in="SourceAlpha" type="matrix" values="0 0 0 0 0 0 0 0 0 0 0 0 0 0 0 0 0 0 127 0" result="hardAlpha"/>
<feOffset dy="4"/>
<feGaussianBlur stdDeviation="5"/>
<feComposite in2="hardAlpha" operator="out"/>
<feColorMatrix type="matrix" values="0 0 0 0 0 0 0 0 0 0 0 0 0 0 0 0 0 0 0.25 0"/>
<feBlend mode="normal" in2="BackgroundImageFix" result="effect1_dropShadow_1324_51"/>
<feBlend mode="normal" in="SourceGraphic" in2="effect1_dropShadow_1324_51" result="shape"/>
</filter>
<filter id="filter20_d_1324_51" x="256.451" y="394.41" width="44.6123" height="34.7747" filterUnits="userSpaceOnUse" color-interpolation-filters="sRGB">
<feFlood flood-opacity="0" result="BackgroundImageFix"/>
<feColorMatrix in="SourceAlpha" type="matrix" values="0 0 0 0 0 0 0 0 0 0 0 0 0 0 0 0 0 0 127 0" result="hardAlpha"/>
<feOffset dy="4"/>
<feGaussianBlur stdDeviation="5"/>
<feComposite in2="hardAlpha" operator="out"/>
<feColorMatrix type="matrix" values="0 0 0 0 0 0 0 0 0 0 0 0 0 0 0 0 0 0 0.25 0"/>
<feBlend mode="normal" in2="BackgroundImageFix" result="effect1_dropShadow_1324_51"/>
<feBlend mode="normal" in="SourceGraphic" in2="effect1_dropShadow_1324_51" result="shape"/>
</filter>
<filter id="filter21_d_1324_51" x="278.449" y="390.843" width="24.0811" height="24.0757" filterUnits="userSpaceOnUse" color-interpolation-filters="sRGB">
<feFlood flood-opacity="0" result="BackgroundImageFix"/>
<feColorMatrix in="SourceAlpha" type="matrix" values="0 0 0 0 0 0 0 0 0 0 0 0 0 0 0 0 0 0 127 0" result="hardAlpha"/>
<feOffset dy="4"/>
<feGaussianBlur stdDeviation="5"/>
<feComposite in2="hardAlpha" operator="out"/>
<feColorMatrix type="matrix" values="0 0 0 0 0 0 0 0 0 0 0 0 0 0 0 0 0 0 0.25 0"/>
<feBlend mode="normal" in2="BackgroundImageFix" result="effect1_dropShadow_1324_51"/>
<feBlend mode="normal" in="SourceGraphic" in2="effect1_dropShadow_1324_51" result="shape"/>
</filter>
<filter id="filter22_d_1324_51" x="749.922" y="612.24" width="38.46" height="68.1846" filterUnits="userSpaceOnUse" color-interpolation-filters="sRGB">
<feFlood flood-opacity="0" result="BackgroundImageFix"/>
<feColorMatrix in="SourceAlpha" type="matrix" values="0 0 0 0 0 0 0 0 0 0 0 0 0 0 0 0 0 0 127 0" result="hardAlpha"/>
<feOffset dy="4"/>
<feGaussianBlur stdDeviation="5"/>
<feComposite in2="hardAlpha" operator="out"/>
<feColorMatrix type="matrix" values="0 0 0 0 0 0 0 0 0 0 0 0 0 0 0 0 0 0 0.25 0"/>
<feBlend mode="normal" in2="BackgroundImageFix" result="effect1_dropShadow_1324_51"/>
<feBlend mode="normal" in="SourceGraphic" in2="effect1_dropShadow_1324_51" result="shape"/>
</filter>
<filter id="filter23_d_1324_51" x="731.239" y="656.345" width="60.3311" height="36.1885" filterUnits="userSpaceOnUse" color-interpolation-filters="sRGB">
<feFlood flood-opacity="0" result="BackgroundImageFix"/>
<feColorMatrix in="SourceAlpha" type="matrix" values="0 0 0 0 0 0 0 0 0 0 0 0 0 0 0 0 0 0 127 0" result="hardAlpha"/>
<feOffset dy="4"/>
<feGaussianBlur stdDeviation="5"/>
<feComposite in2="hardAlpha" operator="out"/>
<feColorMatrix type="matrix" values="0 0 0 0 0 0 0 0 0 0 0 0 0 0 0 0 0 0 0.25 0"/>
<feBlend mode="normal" in2="BackgroundImageFix" result="effect1_dropShadow_1324_51"/>
<feBlend mode="normal" in="SourceGraphic" in2="effect1_dropShadow_1324_51" result="shape"/>
</filter>
<filter id="filter24_d_1324_51" x="800.933" y="612.24" width="38.46" height="68.1846" filterUnits="userSpaceOnUse" color-interpolation-filters="sRGB">
<feFlood flood-opacity="0" result="BackgroundImageFix"/>
<feColorMatrix in="SourceAlpha" type="matrix" values="0 0 0 0 0 0 0 0 0 0 0 0 0 0 0 0 0 0 127 0" result="hardAlpha"/>
<feOffset dy="4"/>
<feGaussianBlur stdDeviation="5"/>
<feComposite in2="hardAlpha" operator="out"/>
<feColorMatrix type="matrix" values="0 0 0 0 0 0 0 0 0 0 0 0 0 0 0 0 0 0 0.25 0"/>
<feBlend mode="normal" in2="BackgroundImageFix" result="effect1_dropShadow_1324_51"/>
<feBlend mode="normal" in="SourceGraphic" in2="effect1_dropShadow_1324_51" result="shape"/>
</filter>
<filter id="filter25_d_1324_51" x="782.251" y="656.345" width="60.3311" height="36.1885" filterUnits="userSpaceOnUse" color-interpolation-filters="sRGB">
<feFlood flood-opacity="0" result="BackgroundImageFix"/>
<feColorMatrix in="SourceAlpha" type="matrix" values="0 0 0 0 0 0 0 0 0 0 0 0 0 0 0 0 0 0 127 0" result="hardAlpha"/>
<feOffset dy="4"/>
<feGaussianBlur stdDeviation="5"/>
<feComposite in2="hardAlpha" operator="out"/>
<feColorMatrix type="matrix" values="0 0 0 0 0 0 0 0 0 0 0 0 0 0 0 0 0 0 0.25 0"/>
<feBlend mode="normal" in2="BackgroundImageFix" result="effect1_dropShadow_1324_51"/>
<feBlend mode="normal" in="SourceGraphic" in2="effect1_dropShadow_1324_51" result="shape"/>
</filter>
<filter id="filter26_d_1324_51" x="747.017" y="454.337" width="105.631" height="205.4" filterUnits="userSpaceOnUse" color-interpolation-filters="sRGB">
<feFlood flood-opacity="0" result="BackgroundImageFix"/>
<feColorMatrix in="SourceAlpha" type="matrix" values="0 0 0 0 0 0 0 0 0 0 0 0 0 0 0 0 0 0 127 0" result="hardAlpha"/>
<feOffset dy="4"/>
<feGaussianBlur stdDeviation="5"/>
<feComposite in2="hardAlpha" operator="out"/>
<feColorMatrix type="matrix" values="0 0 0 0 0 0 0 0 0 0 0 0 0 0 0 0 0 0 0.25 0"/>
<feBlend mode="normal" in2="BackgroundImageFix" result="effect1_dropShadow_1324_51"/>
<feBlend mode="normal" in="SourceGraphic" in2="effect1_dropShadow_1324_51" result="shape"/>
</filter>
<filter id="filter27_d_1324_51" x="790.513" y="270.962" width="70.1162" height="70.0522" filterUnits="userSpaceOnUse" color-interpolation-filters="sRGB">
<feFlood flood-opacity="0" result="BackgroundImageFix"/>
<feColorMatrix in="SourceAlpha" type="matrix" values="0 0 0 0 0 0 0 0 0 0 0 0 0 0 0 0 0 0 127 0" result="hardAlpha"/>
<feOffset dy="4"/>
<feGaussianBlur stdDeviation="5"/>
<feComposite in2="hardAlpha" operator="out"/>
<feColorMatrix type="matrix" values="0 0 0 0 0 0 0 0 0 0 0 0 0 0 0 0 0 0 0.25 0"/>
<feBlend mode="normal" in2="BackgroundImageFix" result="effect1_dropShadow_1324_51"/>
<feBlend mode="normal" in="SourceGraphic" in2="effect1_dropShadow_1324_51" result="shape"/>
</filter>
<filter id="filter28_d_1324_51" x="671.085" y="270.11" width="62.6846" height="67.9668" filterUnits="userSpaceOnUse" color-interpolation-filters="sRGB">
<feFlood flood-opacity="0" result="BackgroundImageFix"/>
<feColorMatrix in="SourceAlpha" type="matrix" values="0 0 0 0 0 0 0 0 0 0 0 0 0 0 0 0 0 0 127 0" result="hardAlpha"/>
<feOffset dy="4"/>
<feGaussianBlur stdDeviation="5"/>
<feComposite in2="hardAlpha" operator="out"/>
<feColorMatrix type="matrix" values="0 0 0 0 0 0 0 0 0 0 0 0 0 0 0 0 0 0 0.25 0"/>
<feBlend mode="normal" in2="BackgroundImageFix" result="effect1_dropShadow_1324_51"/>
<feBlend mode="normal" in="SourceGraphic" in2="effect1_dropShadow_1324_51" result="shape"/>
</filter>
<filter id="filter29_d_1324_51" x="688.874" y="288.152" width="121.882" height="94.095" filterUnits="userSpaceOnUse" color-interpolation-filters="sRGB">
<feFlood flood-opacity="0" result="BackgroundImageFix"/>
<feColorMatrix in="SourceAlpha" type="matrix" values="0 0 0 0 0 0 0 0 0 0 0 0 0 0 0 0 0 0 127 0" result="hardAlpha"/>
<feOffset dy="4"/>
<feGaussianBlur stdDeviation="5"/>
<feComposite in2="hardAlpha" operator="out"/>
<feColorMatrix type="matrix" values="0 0 0 0 0 0 0 0 0 0 0 0 0 0 0 0 0 0 0.25 0"/>
<feBlend mode="normal" in2="BackgroundImageFix" result="effect1_dropShadow_1324_51"/>
<feBlend mode="normal" in="SourceGraphic" in2="effect1_dropShadow_1324_51" result="shape"/>
</filter>
<filter id="filter30_d_1324_51" x="757.915" y="329.066" width="112.964" height="156.49" filterUnits="userSpaceOnUse" color-interpolation-filters="sRGB">
<feFlood flood-opacity="0" result="BackgroundImageFix"/>
<feColorMatrix in="SourceAlpha" type="matrix" values="0 0 0 0 0 0 0 0 0 0 0 0 0 0 0 0 0 0 127 0" result="hardAlpha"/>
<feOffset dy="4"/>
<feGaussianBlur stdDeviation="5"/>
<feComposite in2="hardAlpha" operator="out"/>
<feColorMatrix type="matrix" values="0 0 0 0 0 0 0 0 0 0 0 0 0 0 0 0 0 0 0.25 0"/>
<feBlend mode="normal" in2="BackgroundImageFix" result="effect1_dropShadow_1324_51"/>
<feBlend mode="normal" in="SourceGraphic" in2="effect1_dropShadow_1324_51" result="shape"/>
</filter>
<filter id="filter31_d_1324_51" x="806.435" y="433.573" width="54.5645" height="69.7048" filterUnits="userSpaceOnUse" color-interpolation-filters="sRGB">
<feFlood flood-opacity="0" result="BackgroundImageFix"/>
<feColorMatrix in="SourceAlpha" type="matrix" values="0 0 0 0 0 0 0 0 0 0 0 0 0 0 0 0 0 0 127 0" result="hardAlpha"/>
<feOffset dy="4"/>
<feGaussianBlur stdDeviation="5"/>
<feComposite in2="hardAlpha" operator="out"/>
<feColorMatrix type="matrix" values="0 0 0 0 0 0 0 0 0 0 0 0 0 0 0 0 0 0 0.25 0"/>
<feBlend mode="normal" in2="BackgroundImageFix" result="effect1_dropShadow_1324_51"/>
<feBlend mode="normal" in="SourceGraphic" in2="effect1_dropShadow_1324_51" result="shape"/>
</filter>
<filter id="filter32_d_1324_51" x="815.723" y="345.089" width="63.9062" height="135.175" filterUnits="userSpaceOnUse" color-interpolation-filters="sRGB">
<feFlood flood-opacity="0" result="BackgroundImageFix"/>
<feColorMatrix in="SourceAlpha" type="matrix" values="0 0 0 0 0 0 0 0 0 0 0 0 0 0 0 0 0 0 127 0" result="hardAlpha"/>
<feOffset dy="4"/>
<feGaussianBlur stdDeviation="5"/>
<feComposite in2="hardAlpha" operator="out"/>
<feColorMatrix type="matrix" values="0 0 0 0 0 0 0 0 0 0 0 0 0 0 0 0 0 0 0.25 0"/>
<feBlend mode="normal" in2="BackgroundImageFix" result="effect1_dropShadow_1324_51"/>
<feBlend mode="normal" in="SourceGraphic" in2="effect1_dropShadow_1324_51" result="shape"/>
</filter>
<filter id="filter33_d_1324_51" x="816.08" y="382.766" width="39.8145" height="85.2231" filterUnits="userSpaceOnUse" color-interpolation-filters="sRGB">
<feFlood flood-opacity="0" result="BackgroundImageFix"/>
<feColorMatrix in="SourceAlpha" type="matrix" values="0 0 0 0 0 0 0 0 0 0 0 0 0 0 0 0 0 0 127 0" result="hardAlpha"/>
<feOffset dy="4"/>
<feGaussianBlur stdDeviation="5"/>
<feComposite in2="hardAlpha" operator="out"/>
<feColorMatrix type="matrix" values="0 0 0 0 0 0 0 0 0 0 0 0 0 0 0 0 0 0 0.25 0"/>
<feBlend mode="normal" in2="BackgroundImageFix" result="effect1_dropShadow_1324_51"/>
<feBlend mode="normal" in="SourceGraphic" in2="effect1_dropShadow_1324_51" result="shape"/>
</filter>
<filter id="filter34_d_1324_51" x="783.097" y="264.981" width="83.8525" height="76.1082" filterUnits="userSpaceOnUse" color-interpolation-filters="sRGB">
<feFlood flood-opacity="0" result="BackgroundImageFix"/>
<feColorMatrix in="SourceAlpha" type="matrix" values="0 0 0 0 0 0 0 0 0 0 0 0 0 0 0 0 0 0 127 0" result="hardAlpha"/>
<feOffset dy="4"/>
<feGaussianBlur stdDeviation="5"/>
<feComposite in2="hardAlpha" operator="out"/>
<feColorMatrix type="matrix" values="0 0 0 0 0 0 0 0 0 0 0 0 0 0 0 0 0 0 0.25 0"/>
<feBlend mode="normal" in2="BackgroundImageFix" result="effect1_dropShadow_1324_51"/>
<feBlend mode="normal" in="SourceGraphic" in2="effect1_dropShadow_1324_51" result="shape"/>
</filter>
<filter id="filter35_d_1324_51" x="335.912" y="214.968" width="363.818" height="119.856" filterUnits="userSpaceOnUse" color-interpolation-filters="sRGB">
<feFlood flood-opacity="0" result="BackgroundImageFix"/>
<feColorMatrix in="SourceAlpha" type="matrix" values="0 0 0 0 0 0 0 0 0 0 0 0 0 0 0 0 0 0 127 0" result="hardAlpha"/>
<feOffset dy="4"/>
<feGaussianBlur stdDeviation="5"/>
<feComposite in2="hardAlpha" operator="out"/>
<feColorMatrix type="matrix" values="0 0 0 0 0 0 0 0 0 0 0 0 0 0 0 0 0 0 0.25 0"/>
<feBlend mode="normal" in2="BackgroundImageFix" result="effect1_dropShadow_1324_51"/>
<feBlend mode="normal" in="SourceGraphic" in2="effect1_dropShadow_1324_51" result="shape"/>
</filter>
<filter id="filter36_d_1324_51" x="335.401" y="214.459" width="364.838" height="120.875" filterUnits="userSpaceOnUse" color-interpolation-filters="sRGB">
<feFlood flood-opacity="0" result="BackgroundImageFix"/>
<feColorMatrix in="SourceAlpha" type="matrix" values="0 0 0 0 0 0 0 0 0 0 0 0 0 0 0 0 0 0 127 0" result="hardAlpha"/>
<feOffset dy="4"/>
<feGaussianBlur stdDeviation="5"/>
<feComposite in2="hardAlpha" operator="out"/>
<feColorMatrix type="matrix" values="0 0 0 0 0 0 0 0 0 0 0 0 0 0 0 0 0 0 0.25 0"/>
<feBlend mode="normal" in2="BackgroundImageFix" result="effect1_dropShadow_1324_51"/>
<feBlend mode="normal" in="SourceGraphic" in2="effect1_dropShadow_1324_51" result="shape"/>
</filter>
<filter id="filter37_d_1324_51" x="373.66" y="230.252" width="288.321" height="88.2688" filterUnits="userSpaceOnUse" color-interpolation-filters="sRGB">
<feFlood flood-opacity="0" result="BackgroundImageFix"/>
<feColorMatrix in="SourceAlpha" type="matrix" values="0 0 0 0 0 0 0 0 0 0 0 0 0 0 0 0 0 0 127 0" result="hardAlpha"/>
<feOffset dy="4"/>
<feGaussianBlur stdDeviation="5"/>
<feComposite in2="hardAlpha" operator="out"/>
<feColorMatrix type="matrix" values="0 0 0 0 0 0 0 0 0 0 0 0 0 0 0 0 0 0 0.25 0"/>
<feBlend mode="normal" in2="BackgroundImageFix" result="effect1_dropShadow_1324_51"/>
<feBlend mode="normal" in="SourceGraphic" in2="effect1_dropShadow_1324_51" result="shape"/>
</filter>
<filter id="filter38_d_1324_51" x="420.858" y="239.636" width="60.2627" height="60.2119" filterUnits="userSpaceOnUse" color-interpolation-filters="sRGB">
<feFlood flood-opacity="0" result="BackgroundImageFix"/>
<feColorMatrix in="SourceAlpha" type="matrix" values="0 0 0 0 0 0 0 0 0 0 0 0 0 0 0 0 0 0 127 0" result="hardAlpha"/>
<feOffset dy="4"/>
<feGaussianBlur stdDeviation="5"/>
<feComposite in2="hardAlpha" operator="out"/>
<feColorMatrix type="matrix" values="0 0 0 0 0 0 0 0 0 0 0 0 0 0 0 0 0 0 0.25 0"/>
<feBlend mode="normal" in2="BackgroundImageFix" result="effect1_dropShadow_1324_51"/>
<feBlend mode="normal" in="SourceGraphic" in2="effect1_dropShadow_1324_51" result="shape"/>
</filter>
<filter id="filter39_d_1324_51" x="404.711" y="242.912" width="226.219" height="75.6094" filterUnits="userSpaceOnUse" color-interpolation-filters="sRGB">
<feFlood flood-opacity="0" result="BackgroundImageFix"/>
<feColorMatrix in="SourceAlpha" type="matrix" values="0 0 0 0 0 0 0 0 0 0 0 0 0 0 0 0 0 0 127 0" result="hardAlpha"/>
<feOffset dy="4"/>
<feGaussianBlur stdDeviation="5"/>
<feComposite in2="hardAlpha" operator="out"/>
<feColorMatrix type="matrix" values="0 0 0 0 0 0 0 0 0 0 0 0 0 0 0 0 0 0 0.25 0"/>
<feBlend mode="normal" in2="BackgroundImageFix" result="effect1_dropShadow_1324_51"/>
<feBlend mode="normal" in="SourceGraphic" in2="effect1_dropShadow_1324_51" result="shape"/>
</filter>
<filter id="filter40_d_1324_51" x="497.597" y="56.7979" width="124.419" height="115.215" filterUnits="userSpaceOnUse" color-interpolation-filters="sRGB">
<feFlood flood-opacity="0" result="BackgroundImageFix"/>
<feColorMatrix in="SourceAlpha" type="matrix" values="0 0 0 0 0 0 0 0 0 0 0 0 0 0 0 0 0 0 127 0" result="hardAlpha"/>
<feOffset dy="4"/>
<feGaussianBlur stdDeviation="5"/>
<feComposite in2="hardAlpha" operator="out"/>
<feColorMatrix type="matrix" values="0 0 0 0 0 0 0 0 0 0 0 0 0 0 0 0 0 0 0.25 0"/>
<feBlend mode="normal" in2="BackgroundImageFix" result="effect1_dropShadow_1324_51"/>
<feBlend mode="normal" in="SourceGraphic" in2="effect1_dropShadow_1324_51" result="shape"/>
</filter>
<filter id="filter41_d_1324_51" x="446.305" y="88.7512" width="44.7812" height="152.58" filterUnits="userSpaceOnUse" color-interpolation-filters="sRGB">
<feFlood flood-opacity="0" result="BackgroundImageFix"/>
<feColorMatrix in="SourceAlpha" type="matrix" values="0 0 0 0 0 0 0 0 0 0 0 0 0 0 0 0 0 0 127 0" result="hardAlpha"/>
<feOffset dy="4"/>
<feGaussianBlur stdDeviation="5"/>
<feComposite in2="hardAlpha" operator="out"/>
<feColorMatrix type="matrix" values="0 0 0 0 0 0 0 0 0 0 0 0 0 0 0 0 0 0 0.25 0"/>
<feBlend mode="normal" in2="BackgroundImageFix" result="effect1_dropShadow_1324_51"/>
<feBlend mode="normal" in="SourceGraphic" in2="effect1_dropShadow_1324_51" result="shape"/>
</filter>
<filter id="filter42_d_1324_51" x="447.256" y="56.1467" width="111.227" height="111.347" filterUnits="userSpaceOnUse" color-interpolation-filters="sRGB">
<feFlood flood-opacity="0" result="BackgroundImageFix"/>
<feColorMatrix in="SourceAlpha" type="matrix" values="0 0 0 0 0 0 0 0 0 0 0 0 0 0 0 0 0 0 127 0" result="hardAlpha"/>
<feOffset dy="4"/>
<feGaussianBlur stdDeviation="5"/>
<feComposite in2="hardAlpha" operator="out"/>
<feColorMatrix type="matrix" values="0 0 0 0 0 0 0 0 0 0 0 0 0 0 0 0 0 0 0.25 0"/>
<feBlend mode="normal" in2="BackgroundImageFix" result="effect1_dropShadow_1324_51"/>
<feBlend mode="normal" in="SourceGraphic" in2="effect1_dropShadow_1324_51" result="shape"/>
</filter>
<filter id="filter43_d_1324_51" x="63.5713" y="309.259" width="67.2812" height="67.2209" filterUnits="userSpaceOnUse" color-interpolation-filters="sRGB">
<feFlood flood-opacity="0" result="BackgroundImageFix"/>
<feColorMatrix in="SourceAlpha" type="matrix" values="0 0 0 0 0 0 0 0 0 0 0 0 0 0 0 0 0 0 127 0" result="hardAlpha"/>
<feOffset dy="4"/>
<feGaussianBlur stdDeviation="5"/>
<feComposite in2="hardAlpha" operator="out"/>
<feColorMatrix type="matrix" values="0 0 0 0 0 0 0 0 0 0 0 0 0 0 0 0 0 0 0.25 0"/>
<feBlend mode="normal" in2="BackgroundImageFix" result="effect1_dropShadow_1324_51"/>
<feBlend mode="normal" in="SourceGraphic" in2="effect1_dropShadow_1324_51" result="shape"/>
</filter>
<filter id="filter44_d_1324_51" x="86.6191" y="314.328" width="82.6357" height="105.98" filterUnits="userSpaceOnUse" color-interpolation-filters="sRGB">
<feFlood flood-opacity="0" result="BackgroundImageFix"/>
<feColorMatrix in="SourceAlpha" type="matrix" values="0 0 0 0 0 0 0 0 0 0 0 0 0 0 0 0 0 0 127 0" result="hardAlpha"/>
<feOffset dy="4"/>
<feGaussianBlur stdDeviation="5"/>
<feComposite in2="hardAlpha" operator="out"/>
<feColorMatrix type="matrix" values="0 0 0 0 0 0 0 0 0 0 0 0 0 0 0 0 0 0 0.25 0"/>
<feBlend mode="normal" in2="BackgroundImageFix" result="effect1_dropShadow_1324_51"/>
<feBlend mode="normal" in="SourceGraphic" in2="effect1_dropShadow_1324_51" result="shape"/>
</filter>
<filter id="filter45_d_1324_51" x="126.145" y="616.01" width="37.416" height="65.458" filterUnits="userSpaceOnUse" color-interpolation-filters="sRGB">
<feFlood flood-opacity="0" result="BackgroundImageFix"/>
<feColorMatrix in="SourceAlpha" type="matrix" values="0 0 0 0 0 0 0 0 0 0 0 0 0 0 0 0 0 0 127 0" result="hardAlpha"/>
<feOffset dy="4"/>
<feGaussianBlur stdDeviation="5"/>
<feComposite in2="hardAlpha" operator="out"/>
<feColorMatrix type="matrix" values="0 0 0 0 0 0 0 0 0 0 0 0 0 0 0 0 0 0 0.25 0"/>
<feBlend mode="normal" in2="BackgroundImageFix" result="effect1_dropShadow_1324_51"/>
<feBlend mode="normal" in="SourceGraphic" in2="effect1_dropShadow_1324_51" result="shape"/>
</filter>
<filter id="filter46_d_1324_51" x="123.138" y="657.62" width="58.0498" height="35.2727" filterUnits="userSpaceOnUse" color-interpolation-filters="sRGB">
<feFlood flood-opacity="0" result="BackgroundImageFix"/>
<feColorMatrix in="SourceAlpha" type="matrix" values="0 0 0 0 0 0 0 0 0 0 0 0 0 0 0 0 0 0 127 0" result="hardAlpha"/>
<feOffset dy="4"/>
<feGaussianBlur stdDeviation="5"/>
<feComposite in2="hardAlpha" operator="out"/>
<feColorMatrix type="matrix" values="0 0 0 0 0 0 0 0 0 0 0 0 0 0 0 0 0 0 0.25 0"/>
<feBlend mode="normal" in2="BackgroundImageFix" result="effect1_dropShadow_1324_51"/>
<feBlend mode="normal" in="SourceGraphic" in2="effect1_dropShadow_1324_51" result="shape"/>
</filter>
<filter id="filter47_d_1324_51" x="8.85938" y="606.115" width="58.249" height="65.0881" filterUnits="userSpaceOnUse" color-interpolation-filters="sRGB">
<feFlood flood-opacity="0" result="BackgroundImageFix"/>
<feColorMatrix in="SourceAlpha" type="matrix" values="0 0 0 0 0 0 0 0 0 0 0 0 0 0 0 0 0 0 127 0" result="hardAlpha"/>
<feOffset dy="4"/>
<feGaussianBlur stdDeviation="5"/>
<feComposite in2="hardAlpha" operator="out"/>
<feColorMatrix type="matrix" values="0 0 0 0 0 0 0 0 0 0 0 0 0 0 0 0 0 0 0.25 0"/>
<feBlend mode="normal" in2="BackgroundImageFix" result="effect1_dropShadow_1324_51"/>
<feBlend mode="normal" in="SourceGraphic" in2="effect1_dropShadow_1324_51" result="shape"/>
</filter>
<filter id="filter48_d_1324_51" x="0.420898" y="640.33" width="55.0244" height="52.5627" filterUnits="userSpaceOnUse" color-interpolation-filters="sRGB">
<feFlood flood-opacity="0" result="BackgroundImageFix"/>
<feColorMatrix in="SourceAlpha" type="matrix" values="0 0 0 0 0 0 0 0 0 0 0 0 0 0 0 0 0 0 127 0" result="hardAlpha"/>
<feOffset dy="4"/>
<feGaussianBlur stdDeviation="5"/>
<feComposite in2="hardAlpha" operator="out"/>
<feColorMatrix type="matrix" values="0 0 0 0 0 0 0 0 0 0 0 0 0 0 0 0 0 0 0.25 0"/>
<feBlend mode="normal" in2="BackgroundImageFix" result="effect1_dropShadow_1324_51"/>
<feBlend mode="normal" in="SourceGraphic" in2="effect1_dropShadow_1324_51" result="shape"/>
</filter>
<filter id="filter49_d_1324_51" x="15.5381" y="428.658" width="152.155" height="236.754" filterUnits="userSpaceOnUse" color-interpolation-filters="sRGB">
<feFlood flood-opacity="0" result="BackgroundImageFix"/>
<feColorMatrix in="SourceAlpha" type="matrix" values="0 0 0 0 0 0 0 0 0 0 0 0 0 0 0 0 0 0 127 0" result="hardAlpha"/>
<feOffset dy="4"/>
<feGaussianBlur stdDeviation="5"/>
<feComposite in2="hardAlpha" operator="out"/>
<feColorMatrix type="matrix" values="0 0 0 0 0 0 0 0 0 0 0 0 0 0 0 0 0 0 0.25 0"/>
<feBlend mode="normal" in2="BackgroundImageFix" result="effect1_dropShadow_1324_51"/>
<feBlend mode="normal" in="SourceGraphic" in2="effect1_dropShadow_1324_51" result="shape"/>
</filter>
<filter id="filter50_d_1324_51" x="58.5078" y="364.471" width="88.0742" height="107.401" filterUnits="userSpaceOnUse" color-interpolation-filters="sRGB">
<feFlood flood-opacity="0" result="BackgroundImageFix"/>
<feColorMatrix in="SourceAlpha" type="matrix" values="0 0 0 0 0 0 0 0 0 0 0 0 0 0 0 0 0 0 127 0" result="hardAlpha"/>
<feOffset dy="4"/>
<feGaussianBlur stdDeviation="5"/>
<feComposite in2="hardAlpha" operator="out"/>
<feColorMatrix type="matrix" values="0 0 0 0 0 0 0 0 0 0 0 0 0 0 0 0 0 0 0.25 0"/>
<feBlend mode="normal" in2="BackgroundImageFix" result="effect1_dropShadow_1324_51"/>
<feBlend mode="normal" in="SourceGraphic" in2="effect1_dropShadow_1324_51" result="shape"/>
</filter>
<filter id="filter51_d_1324_51" x="78.3369" y="299.621" width="57.5381" height="39.9111" filterUnits="userSpaceOnUse" color-interpolation-filters="sRGB">
<feFlood flood-opacity="0" result="BackgroundImageFix"/>
<feColorMatrix in="SourceAlpha" type="matrix" values="0 0 0 0 0 0 0 0 0 0 0 0 0 0 0 0 0 0 127 0" result="hardAlpha"/>
<feOffset dy="4"/>
<feGaussianBlur stdDeviation="5"/>
<feComposite in2="hardAlpha" operator="out"/>
<feColorMatrix type="matrix" values="0 0 0 0 0 0 0 0 0 0 0 0 0 0 0 0 0 0 0.25 0"/>
<feBlend mode="normal" in2="BackgroundImageFix" result="effect1_dropShadow_1324_51"/>
<feBlend mode="normal" in="SourceGraphic" in2="effect1_dropShadow_1324_51" result="shape"/>
</filter>
<filter id="filter52_d_1324_51" x="47.5361" y="300.306" width="77.4443" height="77.5239" filterUnits="userSpaceOnUse" color-interpolation-filters="sRGB">
<feFlood flood-opacity="0" result="BackgroundImageFix"/>
<feColorMatrix in="SourceAlpha" type="matrix" values="0 0 0 0 0 0 0 0 0 0 0 0 0 0 0 0 0 0 127 0" result="hardAlpha"/>
<feOffset dy="4"/>
<feGaussianBlur stdDeviation="5"/>
<feComposite in2="hardAlpha" operator="out"/>
<feColorMatrix type="matrix" values="0 0 0 0 0 0 0 0 0 0 0 0 0 0 0 0 0 0 0.25 0"/>
<feBlend mode="normal" in2="BackgroundImageFix" result="effect1_dropShadow_1324_51"/>
<feBlend mode="normal" in="SourceGraphic" in2="effect1_dropShadow_1324_51" result="shape"/>
</filter>
<filter id="filter53_d_1324_51" x="131.025" y="275.595" width="83.2539" height="83.1741" filterUnits="userSpaceOnUse" color-interpolation-filters="sRGB">
<feFlood flood-opacity="0" result="BackgroundImageFix"/>
<feColorMatrix in="SourceAlpha" type="matrix" values="0 0 0 0 0 0 0 0 0 0 0 0 0 0 0 0 0 0 127 0" result="hardAlpha"/>
<feOffset dy="4"/>
<feGaussianBlur stdDeviation="5"/>
<feComposite in2="hardAlpha" operator="out"/>
<feColorMatrix type="matrix" values="0 0 0 0 0 0 0 0 0 0 0 0 0 0 0 0 0 0 0.25 0"/>
<feBlend mode="normal" in2="BackgroundImageFix" result="effect1_dropShadow_1324_51"/>
<feBlend mode="normal" in="SourceGraphic" in2="effect1_dropShadow_1324_51" result="shape"/>
</filter>
<filter id="filter54_d_1324_51" x="131.025" y="275.595" width="83.2539" height="83.1741" filterUnits="userSpaceOnUse" color-interpolation-filters="sRGB">
<feFlood flood-opacity="0" result="BackgroundImageFix"/>
<feColorMatrix in="SourceAlpha" type="matrix" values="0 0 0 0 0 0 0 0 0 0 0 0 0 0 0 0 0 0 127 0" result="hardAlpha"/>
<feOffset dy="4"/>
<feGaussianBlur stdDeviation="5"/>
<feComposite in2="hardAlpha" operator="out"/>
<feColorMatrix type="matrix" values="0 0 0 0 0 0 0 0 0 0 0 0 0 0 0 0 0 0 0.25 0"/>
<feBlend mode="normal" in2="BackgroundImageFix" result="effect1_dropShadow_1324_51"/>
<feBlend mode="normal" in="SourceGraphic" in2="effect1_dropShadow_1324_51" result="shape"/>
</filter>
<filter id="filter55_d_1324_51" x="145.309" y="293.427" width="54.6875" height="47.5115" filterUnits="userSpaceOnUse" color-interpolation-filters="sRGB">
<feFlood flood-opacity="0" result="BackgroundImageFix"/>
<feColorMatrix in="SourceAlpha" type="matrix" values="0 0 0 0 0 0 0 0 0 0 0 0 0 0 0 0 0 0 127 0" result="hardAlpha"/>
<feOffset dy="4"/>
<feGaussianBlur stdDeviation="5"/>
<feComposite in2="hardAlpha" operator="out"/>
<feColorMatrix type="matrix" values="0 0 0 0 0 0 0 0 0 0 0 0 0 0 0 0 0 0 0.25 0"/>
<feBlend mode="normal" in2="BackgroundImageFix" result="effect1_dropShadow_1324_51"/>
<feBlend mode="normal" in="SourceGraphic" in2="effect1_dropShadow_1324_51" result="shape"/>
</filter>
<filter id="filter56_d_1324_51" x="92.2646" y="326.26" width="105.044" height="96.4863" filterUnits="userSpaceOnUse" color-interpolation-filters="sRGB">
<feFlood flood-opacity="0" result="BackgroundImageFix"/>
<feColorMatrix in="SourceAlpha" type="matrix" values="0 0 0 0 0 0 0 0 0 0 0 0 0 0 0 0 0 0 127 0" result="hardAlpha"/>
<feOffset dy="4"/>
<feGaussianBlur stdDeviation="5"/>
<feComposite in2="hardAlpha" operator="out"/>
<feColorMatrix type="matrix" values="0 0 0 0 0 0 0 0 0 0 0 0 0 0 0 0 0 0 0.25 0"/>
<feBlend mode="normal" in2="BackgroundImageFix" result="effect1_dropShadow_1324_51"/>
<feBlend mode="normal" in="SourceGraphic" in2="effect1_dropShadow_1324_51" result="shape"/>
</filter>
</defs>
</svg>
